<?xml version="1.0" standalone="no"?>
<!DOCTYPE svg PUBLIC "-//W3C//DTD SVG 20010904//EN"
 "http://www.w3.org/TR/2001/REC-SVG-20010904/DTD/svg10.dtd">
<svg version="1.0" xmlns="http://www.w3.org/2000/svg"
 width="120.000000pt" height="120.000000pt" viewBox="0 0 120.000000 120.000000"
 preserveAspectRatio="xMidYMid meet">

<g transform="translate(0.000000,120.000000) scale(0.100000,-0.100000)"
fill="#000000" stroke="none">
<path d="M515 1039 c-187 -33 -277 -66 -361 -135 -49 -39 -62 -76 -39 -110 13
-20 15 -40 10 -102 -20 -241 67 -436 225 -511 46 -22 69 -26 140 -26 74 1 94
5 153 32 87 41 155 111 203 208 31 63 45 80 86 105 154 95 207 212 132 287
-22 22 -32 25 -72 20 -26 -3 -57 -8 -68 -12 -19 -6 -22 -2 -26 32 -4 27 0 45
14 62 21 27 24 93 6 109 -7 6 -36 19 -65 30 -43 16 -54 17 -63 7 -9 -11 -3
-16 29 -26 22 -7 50 -22 62 -35 19 -21 20 -27 9 -53 -16 -40 -30 -43 -108 -25
-69 16 -199 14 -302 -6 -70 -14 -201 -60 -243 -87 -36 -23 -40 -23 -63 -8 -30
19 -30 33 -1 76 47 70 255 136 457 145 106 4 134 15 85 34 -36 14 -71 12 -200
-11z m356 -231 c2 -137 -4 -257 -16 -303 -34 -129 -115 -234 -222 -287 -57
-28 -77 -33 -142 -33 -63 0 -86 5 -133 28 -138 68 -198 196 -198 425 0 114 1
124 18 117 9 -3 54 -11 100 -18 138 -18 369 18 527 82 65 26 65 26 66 -11z
m173 -58 c26 -25 23 -75 -7 -117 -23 -32 -120 -113 -136 -113 -9 0 0 202 10
222 11 20 65 38 94 31 11 -3 29 -13 39 -23z"/>
<path d="M560 586 c0 -41 16 -55 38 -33 13 13 13 21 4 42 -17 38 -42 32 -42
-9z"/>
<path d="M419 588 c-4 -41 10 -62 34 -52 21 8 22 50 1 58 -24 9 -34 7 -35 -6z"/>
<path d="M655 464 c-41 -33 -127 -58 -173 -49 -21 4 -49 18 -65 33 -21 20 -30
23 -39 14 -16 -16 24 -58 70 -73 70 -23 188 7 236 60 30 33 7 44 -29 15z"/>
</g>
</svg>
