<svg width="22" height="23" viewBox="0 0 22 23" fill="none" xmlns="http://www.w3.org/2000/svg">
<path fill-rule="evenodd" clip-rule="evenodd" d="M21.9502 1.51755C22.0114 1.31368 22.0163 1.09703 21.9643 0.890616C21.9123 0.684202 21.8053 0.495727 21.6548 0.345208C21.5043 0.194688 21.3158 0.0877425 21.1094 0.035728C20.903 -0.0162866 20.6863 -0.0114283 20.4824 0.0497869L0.838907 5.94285C0.621791 6.0082 0.428133 6.13479 0.281156 6.30744C0.134179 6.48009 0.0401225 6.69148 0.0102645 6.91624C-0.0195935 7.141 0.0160147 7.36961 0.112819 7.57464C0.209624 7.77968 0.363515 7.95244 0.55604 8.07221L7.78172 12.5557L5.06148 15.2743C4.94886 15.383 4.85901 15.513 4.79718 15.6568C4.73534 15.8005 4.70275 15.9552 4.70132 16.1117C4.69989 16.2682 4.72964 16.4234 4.78883 16.5682C4.84802 16.7131 4.93548 16.8448 5.04609 16.9555C5.1567 17.0662 5.28825 17.1538 5.43307 17.2131C5.57789 17.2724 5.73307 17.3023 5.88957 17.301C6.04606 17.2997 6.20073 17.2673 6.34456 17.2056C6.48838 17.1439 6.61848 17.0542 6.72725 16.9417L9.44749 14.223L13.9294 21.444C14.0491 21.6365 14.2219 21.7904 14.4269 21.8872C14.632 21.984 14.8606 22.0196 15.0853 21.9897C15.3101 21.9599 15.5215 21.8658 15.6941 21.7188C15.8668 21.5719 15.9934 21.3782 16.0587 21.1611L21.9518 1.51755H21.9502ZM11.1588 12.5085L14.5517 17.9773L18.3499 5.3174L11.1573 12.5085H11.1588ZM16.6826 3.65005L4.02273 7.44833L9.49149 10.8427L16.6826 3.65005V3.65005Z" fill="#797D6B"/>
</svg>
