<svg width="21" height="23" viewBox="0 0 21 23" fill="none" xmlns="http://www.w3.org/2000/svg">
<path fill-rule="evenodd" clip-rule="evenodd" d="M8.50399 11.5128L3.20771 9.56553C1.06924 8.77929 0 8.38617 0 7.68839C0 6.99061 1.06924 6.59748 3.20772 5.81124L17.1654 0.679484C18.8077 0.075686 19.6288 -0.226213 20.0791 0.198304C20.5293 0.622821 20.2762 1.46028 19.7701 3.1352L15.2356 18.1398C14.4542 20.7253 14.0635 22.018 13.3211 22.018C12.5786 22.018 12.1879 20.7253 11.4066 18.1398L9.85379 13.0016L15.3302 6.9612C15.7011 6.55204 15.6701 5.91963 15.261 5.54868C14.8518 5.17773 14.2194 5.2087 13.8485 5.61786L8.50399 11.5128Z" fill="#5c5c5c"/>
</svg>
