<svg width="26" height="27" viewBox="0 0 26 27" fill="none" xmlns="http://www.w3.org/2000/svg">
<path fill-rule="evenodd" clip-rule="evenodd" d="M9.35469 12.4574L4.05842 10.5101C1.91995 9.72387 0.850708 9.33075 0.850708 8.63297C0.850708 7.93519 1.91995 7.54207 4.05842 6.75582L18.0161 1.62406C19.6584 1.02027 20.4795 0.718367 20.9298 1.14288C21.38 1.5674 21.127 2.40486 20.6208 4.07978L16.0863 19.0844C15.3049 21.6699 14.9142 22.9626 14.1718 22.9626C13.4293 22.9626 13.0387 21.6699 12.2573 19.0844L10.7045 13.9462L16.1809 7.90578C16.5518 7.49662 16.5209 6.86421 16.1117 6.49326C15.7025 6.12231 15.0701 6.15328 14.6992 6.56244L9.35469 12.4574Z" fill="#653866"/>
</svg>
