<svg width="14" height="16" viewBox="0 0 14 16" fill="none" xmlns="http://www.w3.org/2000/svg">
<mask id="path-1-inside-1_875_4842" fill="white">
<path d="M0 2.5C0 1.94772 0.447715 1.5 1 1.5H13C13.5523 1.5 14 1.94772 14 2.5V12.5C14 14.1569 12.6569 15.5 11 15.5H3C1.34315 15.5 0 14.1569 0 12.5V2.5Z"/>
</mask>
<path d="M0 2.5C0 1.94772 0.447715 1.5 1 1.5H13C13.5523 1.5 14 1.94772 14 2.5V12.5C14 14.1569 12.6569 15.5 11 15.5H3C1.34315 15.5 0 14.1569 0 12.5V2.5Z" stroke="white" stroke-width="3" mask="url(#path-1-inside-1_875_4842)"/>
<rect x="3" width="1.5" height="4.5" rx="0.75" fill="white"/>
<rect x="6.25" width="1.5" height="4.5" rx="0.75" fill="white"/>
<rect x="9.5" width="1.5" height="4.5" rx="0.75" fill="white"/>
<path d="M3.75 12C3.33579 12 3 11.6642 3 11.25V11.25C3 10.8358 3.33579 10.5 3.75 10.5H10.25C10.6642 10.5 11 10.8358 11 11.25V11.25C11 11.6642 10.6642 12 10.25 12H3.75Z" fill="white"/>
<path d="M5.75 9C5.33579 9 5 8.66421 5 8.25V8.25C5 7.83579 5.33579 7.5 5.75 7.5H10.25C10.6642 7.5 11 7.83579 11 8.25V8.25C11 8.66421 10.6642 9 10.25 9H5.75Z" fill="white"/>
</svg>
