<svg height="24" viewBox="0 0 24 24" width="24" xmlns="http://www.w3.org/2000/svg"><g fill="none" fill-rule="evenodd"><path d="m5.04765714 15.1238095c0 1.3904762-1.12380952 2.5142857-2.51428571 2.5142857s-2.51428572-1.1238095-2.51428572-2.5142857 1.12380953-2.5142857 2.51428572-2.5142857h2.51428571zm1.25706667 0c0-1.3904762 1.12380952-2.5142857 2.51428571-2.5142857 1.39047618 0 2.51428568 1.1238095 2.51428568 2.5142857v6.2857143c0 1.3904762-1.1238095 2.5142857-2.51428568 2.5142857-1.39047619 0-2.51428571-1.1238095-2.51428571-2.5142857z" fill="#e01e5a"/><path d="m8.81904762 5.02857143c-1.39047619 0-2.51428572-1.12380953-2.51428572-2.51428572s1.12380953-2.51428571 2.51428572-2.51428571c1.39047618 0 2.51428568 1.12380952 2.51428568 2.51428571v2.51428572zm0 1.27622857c1.39047618 0 2.51428568 1.12380952 2.51428568 2.51428571s-1.1238095 2.51428569-2.51428568 2.51428569h-6.30476191c-1.39047619 0-2.51428571-1.1238095-2.51428571-2.51428569s1.12380952-2.51428571 2.51428571-2.51428571z" fill="#36c5f0"/><path d="m18.895219 8.81902857c0-1.39047619 1.1238096-2.51428571 2.5142858-2.51428571s2.5142857 1.12380952 2.5142857 2.51428571c0 1.39047623-1.1238095 2.51428573-2.5142857 2.51428573h-2.5142858zm-1.2571619 0c0 1.39047623-1.1238095 2.51428573-2.5142857 2.51428573s-2.5142857-1.1238095-2.5142857-2.51428573v-6.3047619c0-1.39047619 1.1238095-2.51428572 2.5142857-2.51428572s2.5142857 1.12380953 2.5142857 2.51428572z" fill="#2eb67d"/><path d="m15.1238286 18.8952c1.3904762 0 2.5142857 1.1238095 2.5142857 2.5142857s-1.1238095 2.5142857-2.5142857 2.5142857-2.5142857-1.1238095-2.5142857-2.5142857v-2.5142857zm0-1.2570667c-1.3904762 0-2.5142857-1.1238095-2.5142857-2.5142857s1.1238095-2.5142857 2.5142857-2.5142857h6.3047619c1.3904762 0 2.5142857 1.1238095 2.5142857 2.5142857s-1.1238095 2.5142857-2.5142857 2.5142857z" fill="#ecb22e"/></g></svg>